<svg width="32" height="32" viewBox="0 0 32 32" fill="none" xmlns="http://www.w3.org/2000/svg">
<g clip-path="url(#clip0_7001_7)">
<path d="M16 32C24.8366 32 32 24.8366 32 16C32 7.16344 24.8366 0 16 0C7.16344 0 0 7.16344 0 16C0 24.8366 7.16344 32 16 32Z" fill="white"/>
<path d="M16 23.5C20.1421 23.5 23.5 20.1421 23.5 16C23.5 11.8579 20.1421 8.5 16 8.5C11.8579 8.5 8.5 11.8579 8.5 16C8.5 20.1421 11.8579 23.5 16 23.5Z" stroke="#222222" stroke-width="1.5" stroke-linecap="round" stroke-linejoin="round"/>
<path d="M13 9.25H13.75C12.2875 13.63 12.2875 18.37 13.75 22.75H13" stroke="#222222" stroke-width="1.5" stroke-linecap="round" stroke-linejoin="round"/>
<path d="M18.25 9.25C19.7125 13.63 19.7125 18.37 18.25 22.75" stroke="#222222" stroke-width="1.5" stroke-linecap="round" stroke-linejoin="round"/>
<path d="M9.25 19V18.25C13.63 19.7125 18.37 19.7125 22.75 18.25V19" stroke="#222222" stroke-width="1.5" stroke-linecap="round" stroke-linejoin="round"/>
<path d="M9.25 13.75C13.63 12.2875 18.37 12.2875 22.75 13.75" stroke="#222222" stroke-width="1.5" stroke-linecap="round" stroke-linejoin="round"/>
</g>
<defs>
<clipPath id="clip0_7001_7">
<rect width="32" height="32" fill="white"/>
</clipPath>
</defs>
</svg>
