<svg width="128" height="32" viewBox="0 0 128 32" fill="none" xmlns="http://www.w3.org/2000/svg">
<g filter="url(#filter0_d)">
<path fill-rule="evenodd" clip-rule="evenodd" d="M19.034 16.045C19.812 15.364 20.319 14.469 20.558 13.361H28.238C27.886 16.528 26.611 19.092 24.414 21.055C22.216 23.018 19.51 24 16.298 24C13.955 24 11.846 23.485 9.97 22.456C8.094 21.427 6.63 19.997 5.578 18.166C4.526 16.335 4 14.28 4 12C4 9.72 4.526 7.665 5.578 5.834C6.63 4.003 8.094 2.573 9.97 1.544C11.846 0.514 13.955 0 16.298 0C19.459 0 22.128 0.947 24.305 2.842C26.481 4.736 27.767 7.219 28.16 10.29H20.59C20.269 9.277 19.72 8.462 18.942 7.844C18.165 7.227 17.294 6.918 16.33 6.918C15.003 6.918 13.933 7.385 13.12 8.319C12.305 9.253 11.899 10.48 11.899 11.999C11.899 13.509 12.309 14.731 13.127 15.665C13.947 16.599 15.013 17.065 16.33 17.065C17.356 17.065 18.258 16.725 19.035 16.045H19.034ZM46.294 9.805C47.785 11.235 48.531 13.085 48.531 15.352C48.531 17.944 47.673 20.034 45.956 21.62C44.238 23.207 41.976 24 39.166 24C36.39 24 34.133 23.204 32.394 21.612C30.654 20.019 29.785 17.956 29.785 15.419C29.785 14.034 30.024 12.64 30.501 11.238C30.978 9.836 31.716 8.302 32.715 6.638L36.245 0.768L43.705 0.767L39.528 7.693C39.945 7.671 40.274 7.66 40.516 7.66C42.875 7.66 44.8 8.375 46.293 9.805H46.294ZM41.257 17.48C41.794 16.933 42.063 16.224 42.063 15.352C42.063 14.481 41.794 13.766 41.257 13.207C40.719 12.648 40.022 12.369 39.167 12.369C38.311 12.369 37.613 12.649 37.077 13.207C36.538 13.766 36.27 14.481 36.27 15.352C36.27 16.224 36.538 16.933 37.076 17.48C37.613 18.028 38.311 18.302 39.166 18.302C40.022 18.302 40.719 18.028 41.256 17.48H41.257ZM62.516 10.96C65.166 11.744 66.84 14.089 66.84 17.12C66.84 18.795 66.262 20.25 65.122 21.445C63.989 22.631 62.568 23.233 60.898 23.233H53.672C53.6587 23.2329 53.6456 23.2301 53.6334 23.2249C53.6212 23.2197 53.6102 23.2122 53.6009 23.2027C53.5916 23.1932 53.5843 23.182 53.5793 23.1697C53.5743 23.1574 53.5719 23.1443 53.572 23.131V0.869C53.572 0.813 53.616 0.767 53.672 0.767H60.037C61.584 0.767 62.861 1.284 63.83 2.305C64.826 3.285 65.334 4.595 65.334 6.192C65.334 8.334 64.271 10.1 62.516 10.96ZM64.516 20.872C65.532 19.837 66.026 18.61 66.026 17.119C66.026 15.463 65.519 14.106 64.519 13.088C63.484 12.035 62.209 11.522 60.621 11.522H54.387V22.403H60.897C62.329 22.403 63.547 21.888 64.516 20.873V20.872ZM54.386 1.597V10.693H60.037C61.359 10.693 62.442 10.271 63.258 9.44C64.095 8.588 64.519 7.495 64.519 6.192C64.519 3.486 62.676 1.597 60.037 1.597H54.387H54.386ZM123.981 23.072C123.992 23.087 123.998 23.1047 124 23.1232C124.001 23.1416 123.997 23.1601 123.989 23.1766C123.981 23.1931 123.968 23.207 123.952 23.2168C123.937 23.2266 123.919 23.2318 123.9 23.232H123.142C123.126 23.2321 123.11 23.2283 123.095 23.2208C123.081 23.2133 123.068 23.2024 123.059 23.189L114.96 11.624L111.383 15.83V23.13C111.383 23.1433 111.381 23.1566 111.376 23.169C111.371 23.1815 111.364 23.1928 111.354 23.2024C111.345 23.2119 111.334 23.2196 111.322 23.2248C111.31 23.2301 111.296 23.2329 111.283 23.233H110.681C110.668 23.2329 110.655 23.2301 110.642 23.2249C110.63 23.2197 110.619 23.2122 110.61 23.2027C110.601 23.1932 110.593 23.182 110.588 23.1697C110.583 23.1574 110.581 23.1443 110.581 23.131V0.869C110.581 0.813 110.626 0.767 110.681 0.767H111.283C111.338 0.767 111.383 0.813 111.383 0.869V14.593L123 0.803C123.009 0.791764 123.021 0.782723 123.035 0.776505C123.048 0.770288 123.062 0.767044 123.077 0.767H123.873C123.929 0.767 123.974 0.813 123.974 0.869C123.974 0.894 123.964 0.917 123.95 0.935L115.499 10.967L123.981 23.072ZM105.496 0.767C105.551 0.767 105.596 0.813 105.596 0.869V23.131C105.596 23.1443 105.594 23.1574 105.589 23.1697C105.584 23.182 105.576 23.1932 105.567 23.2027C105.558 23.2122 105.547 23.2197 105.535 23.2249C105.522 23.2301 105.509 23.2329 105.496 23.233H105.219C105.203 23.2331 105.187 23.2293 105.173 23.222C105.159 23.2147 105.147 23.204 105.138 23.191L90.558 2.591V23.131C90.5581 23.1443 90.5556 23.1574 90.5507 23.1697C90.5457 23.182 90.5384 23.1932 90.5291 23.2027C90.5198 23.2122 90.5088 23.2197 90.4966 23.2249C90.4844 23.2301 90.4713 23.2329 90.458 23.233H89.844C89.8307 23.2329 89.8176 23.2301 89.8054 23.2249C89.7932 23.2197 89.7822 23.2122 89.7729 23.2027C89.7636 23.1932 89.7563 23.182 89.7513 23.1697C89.7464 23.1574 89.7439 23.1443 89.744 23.131V0.869C89.744 0.813 89.789 0.767 89.844 0.767H90.234C90.2497 0.767231 90.2651 0.771153 90.279 0.778449C90.2929 0.785746 90.3049 0.796212 90.314 0.809L104.781 21.249V0.87C104.781 0.814 104.826 0.768 104.881 0.768H105.496V0.767ZM86.118 23.095C86.124 23.1103 86.1262 23.1269 86.1244 23.1432C86.1226 23.1596 86.1168 23.1753 86.1075 23.1889C86.0982 23.2025 86.0858 23.2136 86.0712 23.2213C86.0567 23.229 86.0405 23.233 86.024 23.233H85.386C85.3652 23.2328 85.345 23.2262 85.3281 23.214C85.3113 23.2018 85.2987 23.1847 85.292 23.165L82.74 16.282H72.337L69.786 23.167C69.779 23.1863 69.7662 23.203 69.7494 23.2148C69.7326 23.2267 69.7126 23.233 69.692 23.233H69.053C69.0365 23.2329 69.0203 23.2288 69.0057 23.221C68.9912 23.2131 68.9788 23.2019 68.9696 23.1882C68.9605 23.1745 68.9548 23.1587 68.9531 23.1423C68.9514 23.1259 68.9538 23.1093 68.96 23.094L77.25 0.833C77.257 0.813673 77.2698 0.796968 77.2866 0.785159C77.3034 0.773349 77.3234 0.767009 77.344 0.767H77.732C77.7528 0.766875 77.7732 0.773265 77.7902 0.785278C77.8073 0.79729 77.8201 0.814325 77.827 0.834L86.117 23.095H86.118ZM72.636 15.452H82.442L77.54 2.369L72.637 15.452H72.636Z" fill="white"/>
</g>
<defs>
<filter id="filter0_d" x="0" y="0" width="128" height="32" filterUnits="userSpaceOnUse" color-interpolation-filters="sRGB">
<feFlood flood-opacity="0" result="BackgroundImageFix"/>
<feColorMatrix in="SourceAlpha" type="matrix" values="0 0 0 0 0 0 0 0 0 0 0 0 0 0 0 0 0 0 127 0" result="hardAlpha"/>
<feOffset dy="4"/>
<feGaussianBlur stdDeviation="2"/>
<feComposite in2="hardAlpha" operator="out"/>
<feColorMatrix type="matrix" values="0 0 0 0 0 0 0 0 0 0 0 0 0 0 0 0 0 0 0.25 0"/>
<feBlend mode="normal" in2="BackgroundImageFix" result="effect1_dropShadow"/>
<feBlend mode="normal" in="SourceGraphic" in2="effect1_dropShadow" result="shape"/>
</filter>
</defs>
</svg>
